<?xml version="1.0" encoding="UTF-8"?>
<svg width="183px" height="183px" viewBox="0 0 183 183" version="1.1" xmlns="http://www.w3.org/2000/svg" xmlns:xlink="http://www.w3.org/1999/xlink">
    <!-- Generator: Sketch 63.1 (92452) - https://sketch.com -->
    <title>Plate-Logo</title>
    <desc>Created with Sketch.</desc>
    <defs>
        <rect id="path-1" x="0" y="0" width="414" height="896"></rect>
    </defs>
    <g id="Page-1" stroke="none" stroke-width="1" fill="none" fill-rule="evenodd">
        <g id="Loading" transform="translate(-116.000000, -357.000000)">
            <g id="iPhone-/-Frame">
                <mask id="mask-2" fill="white">
                    <use xlink:href="#path-1"></use>
                </mask>
                <g id="Background"></g>
                <path d="M-6.0254024e-15,0 L414,0 L414,896 L-6.0254024e-15,896 L-6.0254024e-15,0 Z M40,0 L374,0 C396.09139,-4.05812251e-15 414,17.90861 414,40 L414,856 C414,878.09139 396.09139,896 374,896 L40,896 C17.90861,896 -3.31998739e-15,878.09139 -6.0254024e-15,856 L-6.0254024e-15,40 C-8.7308174e-15,17.90861 17.90861,4.05812251e-15 40,0 Z M117.067116,34.2068966 L296.932884,34.2068966 C310.956498,34.2068966 322.324884,22.8441923 322.324884,8.82758621 C322.324884,8.8181789 322.322504,7.40919878 322.317745,4.60064583 L322.317744,4.60064583 C322.317572,4.49928081 322.335257,4.39867788 322.369988,4.30344838 C322.369988,4.30344838 322.369988,4.30344838 322.369988,4.30344838 C323.105235,2.28746123 324.809243,0.746116705 326.903416,0.238607482 L327.888,0 L86.112,0 L87.0965838,0.238607482 C89.1807006,0.743679676 90.8959613,2.30188677 91.6368516,4.30344838 C91.6532688,4.34780048 91.6684855,4.39834529 91.6825016,4.45508279 L91.6825016,4.45508279 L91.6751527,8.78452819 L91.6751527,8.78452819 C91.6751162,22.8441923 103.043502,34.2068966 117.067116,34.2068966 Z" id="Hide-to-remove-Frame" fill="#000000" fill-rule="evenodd" mask="url(#mask-2)"></path>
            </g>
            <g id="Plate-Logo" transform="translate(116.000000, 357.000000)">
                <circle id="Oval" stroke="#FFFFFF" stroke-width="4" cx="91.5" cy="91.5" r="74.5"></circle>
                <circle id="Oval" stroke="#FFFFFF" stroke-width="6" cx="91.5" cy="91.5" r="88.5"></circle>
                <circle id="Oval" fill="#3069B6" cx="91.5" cy="91.5" r="54.5"></circle>
                <path d="M82.5137305,43.9803429 C82.5137305,43.9803429 82.5137305,43.8282833 82.5137305,45.5351529 C82.5137305,47.2420224 91.9877412,51.5893036 94.0408309,49.3771933 C96.085989,47.1736289 102.639508,57.82777 103.875134,59.7235852 C106.638985,63.9641486 104.979645,61.41956 103.875134,64.0648881 C102.770623,66.7102162 102.394736,65.1082623 100.705137,67.3157967 C95.9790084,73.4906855 96.1903605,73.0124166 97.1725459,76.2100189 C98.6951978,81.1671634 96.5410912,80.4858517 90.7102261,74.1660838 C88.2053173,74.2733507 86.3275795,74.9546624 85.0770128,76.2100189 C80.5787037,80.7255569 81.3767053,80.1954097 82.5137305,82.1080325 C83.6507557,84.0206553 86.8953378,83.2972657 89.2902734,83.2972657 C90.7102261,83.2972657 88.1196315,89.1237814 88.1780817,87.2058322 C92.0127072,90.2677222 94.6130161,92.3322049 95.9790084,93.3992805 C97.7259709,95.3470324 99.301347,95.751407 100.705137,94.6124042 C104.661035,91.4026785 110.029807,91.4026785 116.811453,94.6124042 C120.479302,94.6684315 123.147174,95.6802617 124.815068,97.6478949 C128.443482,101.928374 129.282585,104.298604 133.266002,104.298604 C137.758567,104.298604 145.584325,109.804187 142.689918,111.870658 C136.747698,116.113122 138.692697,115.439271 137.262424,118.907101 C136.468487,120.832077 136.071518,122.595934 136.071518,124.198673 C132.814514,129.133713 129.812274,132.109665 127.064798,133.126527 C124.129588,134.212872 123.124593,135.514367 121.976789,136.418515 C119.043083,138.729456 118.536591,137.53388 116.811453,140.845012 C115.415893,143.523569 113.500597,144.208354 111.065563,142.899365 C105.699002,145.056412 103.302193,144.042891 103.875134,139.858802 C105.279257,129.604745 106.638985,127.201497 106.638985,120.717617 C106.638985,116.849648 95.9790084,110.544183 95.9790084,106.077677 C95.9790084,102.116814 97.941905,100.908199 98.670092,98.9868186 C98.7655259,98.7350084 98.8569271,97.0780522 97.1725459,96.0296008 C95.3132513,94.8722736 91.7091219,94.7012696 91.505084,94.6124042 C83.6917935,91.2094517 83.316781,89.5183038 74.8432875,85.9376096 C70.558075,84.1267821 65.4696658,83.8085724 62.8441619,80.4513371 C59.2655184,75.875321 52.7958965,71.9909372 50.6106634,70.0275178 C47.0444189,66.8232675 42.0844102,65.4855133 45.4184215,60.3037279 C46.0046045,59.3926708 46.7267769,58.4614996 47.5106516,57.4404711 C51.0778241,52.7940848 56.6315009,48.0038674 57.6410819,47.0381227 C58.6506628,46.072378 53.4394022,50.0642307 60.5859611,44.8890822 C67.7325201,39.7139337 69.0209794,40.1793042 74.8432875,38.118469 C78.7248262,36.7445789 84.0138057,36.0384225 90.7102261,36" id="Path-3" fill="#1A9D40"></path>
                <path d="M101,146 C129.112536,141.548213 141.718973,122.92956 146,98" id="Path" stroke="#FFFFFF" stroke-width="5" stroke-linecap="round"></path>
            </g>
        </g>
    </g>
</svg>